<?xml version="1.0" encoding="iso-8859-1"?>
<!-- Generator: Adobe Illustrator 19.0.0, SVG Export Plug-In . SVG Version: 6.00 Build 0)  -->
<svg version="1.1" id="Layer_1" xmlns="http://www.w3.org/2000/svg" xmlns:xlink="http://www.w3.org/1999/xlink" x="0px" y="0px"
	 viewBox="0 0 512 512" style="enable-background:new 0 0 512 512;" xml:space="preserve">
<path style="fill:#46AFA7;" d="M498.238,419.727H13.761V195.746c0-57.146,46.326-103.471,103.471-103.471h277.534
	c57.146,0,103.471,46.326,103.471,103.471L498.238,419.727L498.238,419.727z"/>
<path d="M274.139,181.374h-77.564c-7.6,0-13.761-6.161-13.761-13.761s6.161-13.761,13.761-13.761h77.564
	c7.599,0,13.761,6.161,13.761,13.761S281.74,181.374,274.139,181.374z"/>
<path d="M315.418,181.375c-0.893,0-1.803-0.096-2.683-0.275c-0.881-0.179-1.748-0.44-2.573-0.784
	c-0.838-0.344-1.636-0.771-2.379-1.266c-0.757-0.495-1.46-1.073-2.093-1.706c-0.633-0.633-1.211-1.335-1.705-2.092
	c-0.495-0.743-0.922-1.541-1.266-2.381c-0.344-0.826-0.605-1.693-0.784-2.573c-0.179-0.881-0.275-1.789-0.275-2.683
	s0.096-1.803,0.275-2.683c0.179-0.881,0.44-1.748,0.784-2.573c0.344-0.839,0.771-1.638,1.266-2.381
	c0.494-0.757,1.072-1.459,1.705-2.092c0.633-0.633,1.336-1.211,2.093-1.706c0.743-0.495,1.541-0.922,2.379-1.266
	c0.827-0.344,1.693-0.619,2.573-0.784c1.775-0.358,3.605-0.358,5.38,0c0.867,0.165,1.734,0.44,2.573,0.784
	c0.826,0.344,1.624,0.771,2.367,1.266c0.758,0.495,1.46,1.073,2.093,1.706c0.633,0.633,1.211,1.335,1.72,2.092
	c0.494,0.743,0.922,1.541,1.266,2.381c0.33,0.826,0.604,1.693,0.771,2.573c0.179,0.881,0.275,1.789,0.275,2.683
	s-0.096,1.803-0.275,2.683c-0.165,0.881-0.439,1.748-0.771,2.573c-0.344,0.839-0.772,1.638-1.266,2.381
	c-0.509,0.757-1.087,1.459-1.72,2.092c-0.633,0.633-1.335,1.211-2.093,1.706c-0.743,0.495-1.541,0.922-2.367,1.266
	c-0.839,0.344-1.706,0.605-2.573,0.784C317.222,181.279,316.313,181.375,315.418,181.375z"/>
<path d="M315.422,236.417h-77.564c-7.6,0-13.761-6.161-13.761-13.761s6.161-13.761,13.761-13.761h77.564
	c7.599,0,13.761,6.161,13.761,13.761S323.022,236.417,315.422,236.417z"/>
<path d="M196.58,236.418c-0.894,0-1.803-0.096-2.697-0.275c-0.867-0.179-1.734-0.44-2.573-0.784
	c-0.826-0.344-1.624-0.771-2.367-1.266c-0.757-0.495-1.459-1.073-2.092-1.706c-0.633-0.633-1.211-1.335-1.72-2.092
	c-0.495-0.743-0.922-1.541-1.266-2.381c-0.344-0.826-0.605-1.693-0.784-2.573c-0.179-0.881-0.261-1.789-0.261-2.683
	s0.083-1.803,0.261-2.683s0.44-1.748,0.784-2.587c0.344-0.826,0.771-1.624,1.266-2.367c0.509-0.757,1.087-1.459,1.72-2.092
	c0.633-0.633,1.335-1.211,2.092-1.706c0.743-0.495,1.541-0.922,2.367-1.266c0.839-0.344,1.693-0.619,2.573-0.784
	c1.775-0.358,3.605-0.358,5.38,0c0.881,0.165,1.748,0.44,2.573,0.784c0.826,0.344,1.638,0.771,2.381,1.266
	c0.757,0.495,1.459,1.073,2.092,1.706c0.633,0.633,1.211,1.335,1.706,2.092c0.495,0.743,0.922,1.541,1.266,2.367
	c0.344,0.839,0.605,1.706,0.784,2.587s0.275,1.789,0.275,2.683s-0.096,1.803-0.275,2.683c-0.179,0.881-0.44,1.748-0.784,2.573
	c-0.344,0.839-0.771,1.638-1.266,2.381c-0.495,0.757-1.073,1.459-1.706,2.092c-0.633,0.633-1.335,1.211-2.092,1.706
	c-0.743,0.495-1.555,0.922-2.381,1.266c-0.826,0.344-1.693,0.605-2.573,0.784C198.384,236.322,197.474,236.418,196.58,236.418z"/>
<circle style="fill:#FFDCAA;" cx="111.517" cy="195.142" r="47.952"/>
<path d="M111.512,256.848c-34.029,0-61.713-27.684-61.713-61.713s27.684-61.713,61.713-61.713s61.713,27.684,61.713,61.713
	S145.539,256.848,111.512,256.848z M111.512,160.945c-18.854,0-34.191,15.338-34.191,34.191s15.338,34.191,34.191,34.191
	s34.191-15.338,34.191-34.191S130.364,160.945,111.512,160.945z"/>
<circle style="fill:#FFDCAA;" cx="400.494" cy="195.142" r="47.952"/>
<path d="M400.488,256.848c-34.029,0-61.713-27.684-61.713-61.713s27.684-61.713,61.713-61.713s61.713,27.684,61.713,61.713
	S434.516,256.848,400.488,256.848z M400.488,160.945c-18.852,0-34.191,15.338-34.191,34.191s15.338,34.191,34.191,34.191
	c18.854,0,34.191-15.338,34.191-34.191S419.34,160.945,400.488,160.945z"/>
<rect x="62.66" y="287.339" style="fill:#FFDCAA;" width="64.667" height="132.392"/>
<rect x="127.067" y="287.339" style="fill:#7BFFCD;" width="64.667" height="132.392"/>
<rect x="191.467" y="287.339" style="fill:#FFDCAA;" width="64.667" height="132.392"/>
<rect x="255.868" y="287.339" style="fill:#7BFFCD;" width="64.667" height="132.392"/>
<rect x="320.268" y="287.339" style="fill:#FFDCAA;" width="64.667" height="132.392"/>
<rect x="384.669" y="287.339" style="fill:#7BFFCD;" width="64.667" height="132.392"/>
<path d="M394.765,78.512H117.232C52.591,78.512,0,131.103,0,195.746v223.981c0,7.6,6.161,13.761,13.761,13.761h484.478
	c7.599,0,13.761-6.161,13.761-13.761V195.746C512,131.103,459.409,78.512,394.765,78.512z M370.911,405.965h-36.616V301.093h36.616
	V405.965z M306.509,405.965h-36.616V301.093h36.616V405.965z M242.106,405.965H205.49V301.093h36.616V405.965z M177.704,405.965
	h-36.616V301.093h36.616V405.965z M113.301,405.965H76.42V301.093h36.88V405.965z M398.698,405.965V301.093h36.88v104.872H398.698z
	 M484.478,405.965H463.1V287.332c0-7.6-6.162-13.761-13.761-13.761h-64.402h-0.264h-64.138h-0.264h-64.138h-0.264h-64.138h-0.264
	h-64.14h-0.264H62.66c-7.6,0-13.761,6.161-13.761,13.761v118.633H27.522V195.746c0-49.467,40.245-89.711,89.711-89.711h277.533
	c49.467,0,89.712,40.245,89.712,89.711v210.219H484.478z"/>
<g>
</g>
<g>
</g>
<g>
</g>
<g>
</g>
<g>
</g>
<g>
</g>
<g>
</g>
<g>
</g>
<g>
</g>
<g>
</g>
<g>
</g>
<g>
</g>
<g>
</g>
<g>
</g>
<g>
</g>
</svg>
