<?xml version="1.0" encoding="iso-8859-1"?>
<!-- Generator: Adobe Illustrator 18.0.0, SVG Export Plug-In . SVG Version: 6.00 Build 0)  -->
<!DOCTYPE svg PUBLIC "-//W3C//DTD SVG 1.1//EN" "http://www.w3.org/Graphics/SVG/1.1/DTD/svg11.dtd">
<svg version="1.1" id="Capa_1" xmlns="http://www.w3.org/2000/svg" xmlns:xlink="http://www.w3.org/1999/xlink" x="0px" y="0px"
	 viewBox="0 0 485.383 485.383" style="enable-background:new 0 0 485.383 485.383;" xml:space="preserve">
<path d="M447.215,283.222c-21.899-19.138-49.892-29.422-74.589-38.496l-2.509-0.922c-43.025-15.842-80.184-29.523-89.925-82.252
	c-6.795-36.618-22.684-70.438-44.737-95.228c-25.798-28.999-58.723-44.326-95.215-44.326C62.911,21.998,0,83.787,0,159.735v216.155
	v79.994c0,1.989,0.79,3.897,2.196,5.303c1.407,1.407,3.314,2.197,5.304,2.197l470.383-0.001c4.143,0,7.5-3.358,7.5-7.5v-79.993
	C485.383,335.978,472.898,305.667,447.215,283.222z M15,159.735C15,92.058,71.183,36.998,140.24,36.998
	c70.172,0,113.446,63.932,125.203,127.285c11.292,61.123,56.13,77.632,99.537,93.614l2.473,0.909
	c46.689,17.153,99.405,36.516,102.761,109.585H15V159.735z M93.396,383.391h24.199v43.19c0,4.142,3.357,7.5,7.5,7.5
	c4.143,0,7.5-3.358,7.5-7.5v-43.19h24.199v43.19c0,4.142,3.357,7.5,7.5,7.5c4.143,0,7.5-3.358,7.5-7.5v-43.19h24.197v64.91
	c0,0.028,0.004,0.056,0.004,0.083l-102.603,0c0-0.028,0.004-0.056,0.004-0.084V383.391z M210.992,448.301v-64.91h24.199v43.19
	c0,4.142,3.357,7.5,7.5,7.5c4.143,0,7.5-3.358,7.5-7.5v-43.19h24.199v64.91c0,0.028,0.004,0.055,0.004,0.083h-63.406
	C210.988,448.356,210.992,448.329,210.992,448.301z M289.391,448.301v-64.91h24.197v43.19c0,4.142,3.357,7.5,7.5,7.5
	c4.143,0,7.5-3.358,7.5-7.5v-43.19h24.199v43.19c0,4.142,3.357,7.5,7.5,7.5c4.143,0,7.5-3.358,7.5-7.5v-43.19h24.199v64.91
	c0,0.028,0.004,0.055,0.004,0.083l-102.604,0.001C289.387,448.356,289.391,448.329,289.391,448.301z M15,383.391h24.197v43.19
	c0,4.142,3.357,7.5,7.5,7.5c4.143,0,7.5-3.358,7.5-7.5v-43.19h24.199v64.91c0,0.028,0.004,0.056,0.004,0.084H15V383.391z
	 M470.383,448.384h-63.4c0-0.028,0.004-0.055,0.004-0.083v-64.91h24.199v43.19c0,4.142,3.358,7.5,7.5,7.5c4.143,0,7.5-3.358,7.5-7.5
	v-43.19h24.197V448.384z"/>
<g>
</g>
<g>
</g>
<g>
</g>
<g>
</g>
<g>
</g>
<g>
</g>
<g>
</g>
<g>
</g>
<g>
</g>
<g>
</g>
<g>
</g>
<g>
</g>
<g>
</g>
<g>
</g>
<g>
</g>
</svg>
